# Blender 4.0.2
# www.blender.org
mtllib Msh_Line.mtl
o Gizmo_Line
v -0.009533 -0.025000 -0.000000
v -0.025000 -0.009533 -0.000000
v -0.025000 -0.009534 0.999730
v -0.009533 -0.025000 0.999730
v -0.025000 0.009533 0.000000
v -0.009533 0.025000 0.000000
v -0.009533 0.025000 0.999730
v -0.025000 0.009533 0.999730
v 0.025000 -0.009533 -0.000000
v 0.009533 -0.025000 -0.000000
v 0.009533 -0.025000 0.999730
v 0.025000 -0.009534 0.999730
v 0.009533 0.025000 0.000000
v 0.025000 0.009533 0.000000
v 0.025000 0.009533 0.999730
v 0.009533 0.025000 0.999730
v -0.000000 -0.000000 1.007412
v -0.000000 0.001871 -0.007676
vn -0.0000 -1.0000 -0.0000
vn 1.0000 -0.0000 -0.0000
vn -0.0000 1.0000 -0.0000
vn -0.7071 -0.7071 -0.0000
vn -0.7071 0.7071 -0.0000
vn 0.7071 0.7071 -0.0000
vn 0.7071 -0.7071 -0.0000
vn -1.0000 -0.0000 -0.0000
vn -0.2122 0.2122 0.9539
vn 0.2122 0.2122 0.9539
vn -0.0000 -0.2937 0.9559
vn 0.2937 -0.0000 0.9559
vn -0.0000 -0.2747 -0.9615
vn 0.2935 -0.0000 -0.9560
vn -0.2230 0.2230 -0.9490
vn 0.2230 0.2230 -0.9490
vn -0.0000 0.3150 -0.9491
vn -0.2021 -0.2021 -0.9583
vn -0.2935 -0.0000 -0.9560
vn 0.2021 -0.2021 -0.9583
vn -0.0000 0.2937 0.9559
vn -0.2122 -0.2122 0.9539
vn 0.2122 -0.2122 0.9539
vn -0.2937 -0.0000 0.9559
vt 0.119562 0.032142
vt 0.119562 1.201304
vt 0.099844 1.201304
vt 0.099844 0.032142
vt 0.171270 0.032142
vt 0.171270 1.201304
vt 0.151552 1.201304
vt 0.151552 0.032142
vt 0.222977 0.032142
vt 0.222977 1.201304
vt 0.203260 1.201304
vt 0.203260 0.032142
vt 0.067854 1.201304
vt 0.067854 0.032142
vt 0.032142 1.201304
vt 0.032142 0.032142
vt 0.048137 0.032142
vt 0.048137 1.201304
vt 0.098209 1.201304
vt 0.144826 1.201304
vt 0.095297 0.032142
vt 0.150964 0.032142
s 0
usemtl Mat_Gizmo
f 10/1/1 11/2/1 4/3/1 1/4/1
f 14/5/2 15/6/2 12/7/2 9/8/2
f 6/9/3 7/10/3 16/11/3 13/12/3
f 1/4/4 4/3/4 3/13/4 2/14/4
f 7/15/5 6/16/5 5/17/5 8/18/5
f 15/6/6 14/5/6 13/12/6 16/11/6
f 11/2/7 10/1/7 9/8/7 12/7/7
f 2/14/8 3/13/8 8/18/8 5/17/8
f 17/19/9 7/15/9 8/18/9
f 17/20/10 15/6/10 16/11/10
f 4/3/11 11/2/11 17/19/11
f 12/7/12 15/6/12 17/20/12
f 18/21/13 10/1/13 1/4/13
f 18/22/14 14/5/14 9/8/14
f 5/17/15 6/16/15 18/21/15
f 13/12/16 14/5/16 18/22/16
f 6/9/17 13/12/17 18/22/17
f 2/14/18 18/21/18 1/4/18
f 2/14/19 5/17/19 18/21/19
f 10/1/20 18/22/20 9/8/20
f 7/10/21 17/20/21 16/11/21
f 3/13/22 4/3/22 17/19/22
f 11/2/23 12/7/23 17/20/23
f 3/13/24 17/19/24 8/18/24
