# Blender 4.0.0
# www.blender.org
mtllib Msh_Arrow.mtl
o Gizmo_Arrow
v -0.022107 0.044214 0.000000
v -0.022107 0.044214 0.800115
v 0.022107 0.044214 -0.000000
v 0.022107 0.044214 0.800115
v -0.022107 0.000000 0.000000
v -0.022107 0.000000 0.800115
v 0.022107 -0.000000 -0.000000
v 0.022107 0.000000 0.800115
v -0.065022 0.087129 0.800115
v 0.065022 0.087129 0.800115
v 0.065022 -0.042915 0.800115
v -0.065022 -0.042915 0.800115
v 0.000000 0.022107 0.999730
vn -0.0000 1.0000 -0.0000
vn 1.0000 -0.0000 -0.0000
vn -0.0000 -1.0000 -0.0000
vn -1.0000 -0.0000 -0.0000
vn -0.0000 -0.0000 -1.0000
vn -0.0000 -0.9508 0.3097
vn -0.0000 0.9508 0.3097
vn -0.9508 -0.0000 0.3097
vn 0.9508 -0.0000 0.3097
vt 0.083849 0.032142
vt 0.083849 0.967858
vt 0.032142 0.967858
vt 0.032142 0.032142
vt 0.238972 0.032142
vt 0.238972 0.967858
vt 0.187265 0.967858
vt 0.187265 0.032142
vt 0.135557 0.967858
vt 0.135557 0.032142
vt 0.405151 0.645358
vt 0.405151 0.593650
vt 0.455339 0.543462
vt 0.455339 0.695546
vt 0.448531 0.434184
vt 0.303255 0.479179
vt 0.303256 0.222155
vt 0.353443 0.593650
vt 0.353443 0.645358
vt 0.303255 0.695546
vt 0.303255 0.543462
vt 0.553435 0.163233
vt 0.542942 0.314954
vt 0.476335 0.032142
s 0
usemtl Mat_Gizmo
f 1/1/1 2/2/1 4/3/1 3/4/1
f 3/5/2 4/6/2 8/7/2 7/8/2
f 7/8/3 8/7/3 6/9/3 5/10/3
f 5/10/4 6/9/4 2/2/4 1/1/4
f 6/11/5 8/12/5 11/13/5 12/14/5
f 12/15/6 11/16/6 13/17/6
f 4/18/5 2/19/5 9/20/5 10/21/5
f 2/19/5 6/11/5 12/14/5 9/20/5
f 8/12/5 4/18/5 10/21/5 11/13/5
f 10/22/7 9/23/7 13/17/7
f 9/23/8 12/15/8 13/17/8
f 11/24/9 10/22/9 13/17/9
