# Blender 4.0.2
# www.blender.org
mtllib Msh_Sphere.mtl
o Gizmo_Sphere
v 0.135299 0.461940 -0.135299
v 0.250000 0.353553 -0.250000
v 0.326641 0.191342 -0.326641
v 0.353553 0.000000 -0.353553
v 0.326641 -0.191342 -0.326641
v 0.250000 -0.353553 -0.250000
v 0.135299 -0.461940 -0.135299
v 0.191342 0.461940 0.000000
v 0.353553 0.353553 0.000000
v 0.461940 0.191342 0.000000
v 0.500000 0.000000 0.000000
v 0.461940 -0.191342 0.000000
v 0.353553 -0.353553 0.000000
v 0.191342 -0.461940 0.000000
v 0.135299 0.461940 0.135299
v 0.250000 0.353553 0.250000
v 0.326641 0.191342 0.326641
v 0.353553 0.000000 0.353553
v 0.326641 -0.191342 0.326641
v 0.250000 -0.353553 0.250000
v 0.135299 -0.461940 0.135299
v 0.000000 0.461940 0.191342
v 0.000000 0.353553 0.353553
v 0.000000 0.191342 0.461940
v 0.000000 0.000000 0.500000
v 0.000000 -0.191342 0.461940
v 0.000000 -0.353553 0.353553
v 0.000000 -0.461940 0.191342
v -0.135299 0.461940 0.135299
v -0.250000 0.353553 0.250000
v -0.326641 0.191342 0.326641
v -0.353553 0.000000 0.353553
v -0.326641 -0.191342 0.326641
v -0.250000 -0.353553 0.250000
v -0.135299 -0.461940 0.135299
v -0.191342 0.461940 0.000000
v -0.353553 0.353553 0.000000
v -0.461940 0.191342 0.000000
v -0.500000 0.000000 0.000000
v -0.461940 -0.191342 0.000000
v -0.353553 -0.353553 0.000000
v -0.191342 -0.461940 0.000000
v -0.135299 0.461940 -0.135299
v -0.250000 0.353553 -0.250000
v -0.326641 0.191342 -0.326641
v -0.353553 0.000000 -0.353553
v -0.326641 -0.191342 -0.326641
v -0.250000 -0.353553 -0.250000
v -0.135299 -0.461940 -0.135299
v 0.000000 -0.500000 0.000000
v 0.000000 0.500000 0.000000
v 0.000000 0.461940 -0.191342
v 0.000000 0.353553 -0.353553
v 0.000000 0.191342 -0.461940
v 0.000000 0.000000 -0.500000
v 0.000000 -0.191342 -0.461940
v 0.000000 -0.353553 -0.353553
v 0.000000 -0.461940 -0.191342
vn 0.2243 -0.8103 -0.5414
vn 0.3764 -0.1807 -0.9087
vn 0.3256 0.5253 -0.7862
vn 0.1379 0.9808 0.1379
vn 0.1379 -0.9808 0.1379
vn 0.3256 -0.5253 -0.7862
vn 0.3764 0.1807 -0.9087
vn 0.2243 0.8103 -0.5414
vn 0.7862 -0.5253 -0.3256
vn 0.9087 0.1807 -0.3764
vn 0.5414 0.8103 -0.2243
vn 0.5414 -0.8103 -0.2243
vn 0.9087 -0.1807 -0.3764
vn 0.7862 0.5253 -0.3256
vn 0.9087 0.1807 0.3764
vn 0.5414 0.8103 0.2243
vn 0.5414 -0.8103 0.2243
vn 0.9087 -0.1807 0.3764
vn 0.7862 0.5253 0.3256
vn -0.1379 0.9808 0.1379
vn -0.1379 -0.9808 0.1379
vn 0.7862 -0.5253 0.3256
vn 0.2243 -0.8103 0.5414
vn 0.3764 -0.1807 0.9087
vn 0.3256 0.5253 0.7862
vn 0.3256 -0.5253 0.7862
vn 0.3764 0.1807 0.9087
vn 0.2243 0.8103 0.5414
vn -0.3256 0.5253 0.7862
vn -0.1379 0.9808 -0.1379
vn -0.3256 -0.5253 0.7862
vn -0.3764 0.1807 0.9087
vn -0.2243 0.8103 0.5414
vn -0.2243 -0.8103 0.5414
vn -0.3764 -0.1807 0.9087
vn -0.7862 -0.5253 0.3256
vn -0.9087 0.1807 0.3764
vn -0.5414 0.8103 0.2243
vn -0.5414 -0.8103 0.2243
vn -0.9087 -0.1807 0.3764
vn -0.7862 0.5253 0.3256
vn -0.5414 0.8103 -0.2243
vn -0.5414 -0.8103 -0.2243
vn -0.9087 -0.1807 -0.3764
vn -0.7862 0.5253 -0.3256
vn -0.1379 -0.9808 -0.1379
vn 0.1379 -0.9808 -0.1379
vn -0.7862 -0.5253 -0.3256
vn -0.9087 0.1807 -0.3764
vn -0.2243 -0.8103 -0.5414
vn -0.3764 -0.1807 -0.9087
vn -0.3256 0.5253 -0.7862
vn -0.3256 -0.5253 -0.7862
vn -0.3764 0.1807 -0.9087
vn -0.2243 0.8103 -0.5414
vn 0.1379 0.9808 -0.1379
vt 0.750000 0.125000
vt 0.750000 0.250000
vt 0.625000 0.250000
vt 0.625000 0.125000
vt 0.750000 0.375000
vt 0.750000 0.500000
vt 0.625000 0.500000
vt 0.625000 0.375000
vt 0.750000 0.625000
vt 0.750000 0.750000
vt 0.625000 0.750000
vt 0.625000 0.625000
vt 0.312500 1.000000
vt 0.250000 0.875000
vt 0.375000 0.875000
vt 0.500000 0.875000
vt 0.375000 0.125000
vt 0.250000 0.125000
vt 0.437500 0.000000
vt 0.500000 0.125000
vt 0.750000 0.875000
vt 0.625000 0.875000
vt 0.500000 0.375000
vt 0.500000 0.250000
vt 0.500000 0.625000
vt 0.500000 0.500000
vt 0.500000 0.750000
vt 0.375000 0.625000
vt 0.375000 0.500000
vt 0.375000 0.750000
vt 0.375000 0.250000
vt 0.375000 0.375000
vt 0.062500 1.000000
vt 0.000000 0.875000
vt 0.125000 0.875000
vt 0.125000 0.125000
vt 0.000000 0.125000
vt 0.187500 0.000000
vt 0.250000 0.250000
vt 0.250000 0.500000
vt 0.250000 0.375000
vt 0.250000 0.750000
vt 0.250000 0.625000
vt 0.125000 0.750000
vt 0.125000 0.625000
vt 0.812500 1.000000
vt 0.875000 0.875000
vt 1.000000 0.875000
vt 0.125000 0.375000
vt 0.125000 0.250000
vt 0.125000 0.500000
vt 0.000000 0.375000
vt 0.000000 0.250000
vt 0.000000 0.625000
vt 0.000000 0.500000
vt 0.000000 0.750000
vt 1.000000 0.750000
vt 0.875000 0.750000
vt 1.000000 0.125000
vt 1.000000 0.250000
vt 0.875000 0.250000
vt 0.875000 0.125000
vt 1.000000 0.375000
vt 1.000000 0.500000
vt 0.875000 0.500000
vt 0.875000 0.375000
vt 1.000000 0.625000
vt 0.875000 0.625000
vt 0.937500 0.000000
vt 0.687500 0.000000
vt 0.562500 1.000000
s 0
usemtl Mat_Gizmo
f 58/1/1 57/2/1 6/3/1 7/4/1
f 56/5/2 55/6/2 4/7/2 5/8/2
f 54/9/3 53/10/3 2/11/3 3/12/3
f 51/13/4 22/14/4 15/15/4 8/16/4
f 21/17/5 28/18/5 50/19/5 14/20/5
f 57/2/6 56/5/6 5/8/6 6/3/6
f 55/6/7 54/9/7 3/12/7 4/7/7
f 53/10/8 52/21/8 1/22/8 2/11/8
f 6/3/9 5/8/9 12/23/9 13/24/9
f 4/7/10 3/12/10 10/25/10 11/26/10
f 2/11/11 1/22/11 8/16/11 9/27/11
f 7/4/12 6/3/12 13/24/12 14/20/12
f 5/8/13 4/7/13 11/26/13 12/23/13
f 3/12/14 2/11/14 9/27/14 10/25/14
f 11/26/15 10/25/15 17/28/15 18/29/15
f 9/27/16 8/16/16 15/15/16 16/30/16
f 14/20/17 13/24/17 20/31/17 21/17/17
f 12/23/18 11/26/18 18/29/18 19/32/18
f 10/25/19 9/27/19 16/30/19 17/28/19
f 51/33/20 36/34/20 29/35/20 22/14/20
f 35/36/21 42/37/21 50/38/21 28/18/21
f 13/24/22 12/23/22 19/32/22 20/31/22
f 21/17/23 20/31/23 27/39/23 28/18/23
f 19/32/24 18/29/24 25/40/24 26/41/24
f 17/28/25 16/30/25 23/42/25 24/43/25
f 20/31/26 19/32/26 26/41/26 27/39/26
f 18/29/27 17/28/27 24/43/27 25/40/27
f 16/30/28 15/15/28 22/14/28 23/42/28
f 24/43/29 23/42/29 30/44/29 31/45/29
f 51/46/30 52/21/30 43/47/30 36/48/30
f 27/39/31 26/41/31 33/49/31 34/50/31
f 25/40/32 24/43/32 31/45/32 32/51/32
f 23/42/33 22/14/33 29/35/33 30/44/33
f 28/18/34 27/39/34 34/50/34 35/36/34
f 26/41/35 25/40/35 32/51/35 33/49/35
f 34/50/36 33/49/36 40/52/36 41/53/36
f 32/51/37 31/45/37 38/54/37 39/55/37
f 30/44/38 29/35/38 36/34/38 37/56/38
f 35/36/39 34/50/39 41/53/39 42/37/39
f 33/49/40 32/51/40 39/55/40 40/52/40
f 31/45/41 30/44/41 37/56/41 38/54/41
f 37/57/42 36/48/42 43/47/42 44/58/42
f 42/59/43 41/60/43 48/61/43 49/62/43
f 40/63/44 39/64/44 46/65/44 47/66/44
f 38/67/45 37/57/45 44/58/45 45/68/45
f 49/62/46 58/1/46 50/69/46 42/59/46
f 7/4/47 14/20/47 50/70/47 58/1/47
f 41/60/48 40/63/48 47/66/48 48/61/48
f 39/64/49 38/67/49 45/68/49 46/65/49
f 49/62/50 48/61/50 57/2/50 58/1/50
f 47/66/51 46/65/51 55/6/51 56/5/51
f 45/68/52 44/58/52 53/10/52 54/9/52
f 48/61/53 47/66/53 56/5/53 57/2/53
f 46/65/54 45/68/54 54/9/54 55/6/54
f 44/58/55 43/47/55 52/21/55 53/10/55
f 51/71/56 8/16/56 1/22/56 52/21/56
