# Blender 4.0.2
# www.blender.org
mtllib Msh_Capsule.mtl
o Gizmo_Capsule
v 0.000000 -0.500000 0.000000
v 0.190211 -0.371520 0.131431
v -0.072653 -0.371520 0.212662
v -0.235114 -0.371519 0.000000
v -0.072653 -0.371520 -0.212662
v 0.190211 -0.371520 -0.131431
v -0.042704 -0.465288 0.124999
v 0.111803 -0.465288 0.077253
v 0.069099 -0.389769 0.202253
v 0.223606 -0.389769 0.000000
v 0.111803 -0.465288 -0.077253
v -0.138196 -0.465288 0.000000
v -0.180901 -0.389769 0.124999
v -0.042704 -0.465288 -0.124999
v -0.180901 -0.389769 -0.124999
v 0.069099 -0.389769 -0.202253
v 0.250000 -0.267575 0.077253
v 0.250000 -0.267575 -0.077253
v 0.000000 -0.267575 0.250000
v 0.154508 -0.267575 0.202254
v -0.250000 -0.267575 0.077253
v -0.154508 -0.267575 0.202254
v -0.154508 -0.267575 -0.202254
v -0.250000 -0.267575 -0.077253
v 0.154508 -0.267575 -0.202254
v 0.000000 -0.267575 -0.250000
v 0.072653 0.371520 0.212662
v -0.190211 0.371520 0.131431
v -0.190211 0.371520 -0.131431
v 0.072653 0.371520 -0.212662
v 0.235114 0.371519 0.000000
v 0.000000 0.500000 0.000000
v 0.250000 0.267575 0.077253
v 0.250000 0.267575 -0.077253
v 0.000000 0.267575 0.250000
v 0.154508 0.267575 0.202254
v -0.250000 0.267575 0.077253
v -0.154508 0.267575 0.202254
v -0.154508 0.267575 -0.202254
v -0.250000 0.267575 -0.077253
v 0.154508 0.267575 -0.202254
v 0.000000 0.267575 -0.250000
v 0.180901 0.389769 0.124999
v -0.069099 0.389770 0.202253
v -0.223606 0.389769 0.000000
v -0.069099 0.389770 -0.202253
v 0.180901 0.389769 -0.124999
v 0.042704 0.465288 0.124999
v 0.138196 0.465288 0.000000
v -0.111803 0.465288 0.077253
v -0.111803 0.465288 -0.077253
v 0.042704 0.465288 -0.124999
vn 0.0912 -0.9510 0.2953
vn 0.6588 -0.7041 0.2651
vn -0.2395 -0.9535 0.1830
vn -0.2395 -0.9535 -0.1830
vn 0.0912 -0.9510 -0.2953
vn 0.8882 -0.3667 0.2766
vn 0.0233 -0.3524 0.9356
vn -0.8720 -0.3662 0.3247
vn -0.5505 -0.3580 -0.7542
vn 0.5110 -0.3572 -0.7818
vn 0.7869 -0.1393 0.6011
vn -0.2925 -0.1356 0.9466
vn -0.9899 -0.1418 -0.0000
vn -0.2925 -0.1356 -0.9466
vn 0.7869 -0.1393 -0.6011
vn 0.2891 -0.2021 -0.9357
vn 0.0233 -0.3524 -0.9356
vn -0.7774 -0.2075 -0.5938
vn -0.8720 -0.3662 -0.3247
vn -0.7774 -0.2075 0.5938
vn -0.5505 -0.3580 0.7542
vn 0.2891 -0.2021 0.9357
vn 0.5110 -0.3572 0.7818
vn 0.9775 -0.2111 -0.0000
vn 0.8882 -0.3667 -0.2766
vn 0.4380 -0.6954 -0.5697
vn 0.1704 -0.8165 -0.5515
vn -0.0354 -0.6885 -0.7244
vn -0.3791 -0.6937 -0.6125
vn -0.4503 -0.8240 -0.3440
vn -0.6823 -0.7052 -0.1929
vn -0.6823 -0.7052 0.1929
vn -0.4503 -0.8240 0.3440
vn -0.3791 -0.6937 0.6125
vn 0.6588 -0.7041 -0.2651
vn 0.5597 -0.8287 -0.0000
vn 0.2965 -0.9550 -0.0000
vn -0.0354 -0.6885 0.7244
vn 0.1704 -0.8165 0.5515
vn 0.4380 -0.6954 0.5697
vn 0.3791 0.6937 0.6125
vn -0.4380 0.6954 0.5697
vn -0.6588 0.7041 -0.2651
vn 0.0354 0.6885 -0.7244
vn 0.6823 0.7052 -0.1929
vn 0.2395 0.9535 -0.1830
vn 0.4503 0.8240 -0.3440
vn 0.3791 0.6937 -0.6125
vn -0.0912 0.9510 -0.2953
vn -0.1704 0.8165 -0.5515
vn -0.4380 0.6954 -0.5697
vn -0.2965 0.9550 -0.0000
vn -0.5597 0.8287 -0.0000
vn -0.6588 0.7041 0.2651
vn -0.0912 0.9510 0.2953
vn -0.1704 0.8165 0.5515
vn 0.0354 0.6885 0.7244
vn 0.2395 0.9535 0.1830
vn 0.4503 0.8240 0.3440
vn 0.6823 0.7052 0.1929
vn 0.8720 0.3662 -0.3247
vn 0.7774 0.2075 -0.5938
vn 0.5505 0.3580 -0.7542
vn -0.0233 0.3524 -0.9356
vn -0.2891 0.2021 -0.9357
vn -0.5110 0.3572 -0.7818
vn -0.8882 0.3667 -0.2766
vn -0.9775 0.2111 -0.0000
vn -0.8882 0.3667 0.2766
vn -0.5110 0.3572 0.7818
vn -0.2891 0.2021 0.9357
vn -0.0233 0.3524 0.9356
vn 0.5505 0.3580 0.7542
vn 0.7774 0.2075 0.5938
vn 0.8720 0.3662 0.3247
vn 0.2925 0.1356 -0.9466
vn -0.7869 0.1393 -0.6011
vn -0.7869 0.1393 0.6011
vn 0.2925 0.1356 0.9466
vn 0.9899 0.1418 -0.0000
vn 1.0000 -0.0000 -0.0000
vn 0.7947 -0.0000 0.6071
vn 0.2952 -0.0000 0.9554
vn -0.2952 -0.0000 0.9554
vn -0.7947 -0.0000 0.6071
vn -1.0000 -0.0000 -0.0000
vn -0.7947 -0.0000 -0.6071
vn -0.2952 -0.0000 -0.9554
vn 0.2952 -0.0000 -0.9554
vn 0.7947 -0.0000 -0.6071
vt 0.551883 0.224428
vt 0.532665 0.287575
vt 0.487485 0.223315
vt 0.511255 0.357244
vt 0.591003 0.346223
vt 0.531402 0.160664
vt 0.603588 0.186023
vt 0.604277 0.264573
vt 0.553150 0.445568
vt 0.415417 0.222210
vt 0.452121 0.298387
vt 0.345148 0.290643
vt 0.508962 0.090800
vt 0.451333 0.147631
vt 0.424211 0.043802
vt 0.661533 0.143158
vt 0.588905 0.103443
vt 0.678427 0.046118
vt 0.662252 0.308744
vt 0.676052 0.226461
vt 0.758508 0.296004
vt 0.425585 0.402938
vt 0.345174 0.153157
vt 0.550493 0.003240
vt 0.758508 0.157873
vt 0.679626 0.404944
vt 0.442123 0.591966
vt 0.514751 0.552251
vt 0.500069 0.634831
vt 0.441404 0.757552
vt 0.427604 0.675269
vt 0.499379 0.713381
vt 0.592401 0.806052
vt 0.512653 0.795031
vt 0.570991 0.736383
vt 0.688240 0.671018
vt 0.651535 0.747195
vt 0.616171 0.672123
vt 0.594694 0.539608
vt 0.652323 0.596439
vt 0.572254 0.609472
vt 0.551773 0.673236
vt 0.679445 0.492610
vt 0.758482 0.601965
vt 0.758508 0.739451
vt 0.678071 0.851747
vt 0.550506 0.894376
vt 0.424030 0.853752
vt 0.345148 0.744812
vt 0.345148 0.606681
vt 0.425230 0.494926
vt 0.553163 0.452049
vt 0.003241 0.100083
vt 0.003241 0.003240
vt 0.338667 0.003240
vt 0.338667 0.100083
vt 0.003240 0.996759
vt 0.003240 0.898164
vt 0.338667 0.898164
vt 0.338667 0.996759
vt 0.003241 0.796801
vt 0.338667 0.796801
vt 0.003241 0.695438
vt 0.338667 0.695438
vt 0.003241 0.596843
vt 0.338667 0.596843
vt 0.003241 0.500000
vt 0.338667 0.500000
vt 0.003241 0.401405
vt 0.338667 0.401405
vt 0.003241 0.300042
vt 0.338667 0.300042
vt 0.003241 0.198679
vt 0.338667 0.198679
s 0
usemtl Mat_Gizmo
f 1/1/1 8/2/1 7/3/1
f 2/4/2 8/2/2 10/5/2
f 1/1/3 7/3/3 12/6/3
f 1/1/4 12/6/4 14/7/4
f 1/1/5 14/7/5 11/8/5
f 2/4/6 10/5/6 17/9/6
f 3/10/7 9/11/7 19/12/7
f 4/13/8 13/14/8 21/15/8
f 5/16/9 15/17/9 23/18/9
f 6/19/10 16/20/10 25/21/10
f 2/4/11 17/9/11 20/22/11
f 3/10/12 19/12/12 22/23/12
f 4/13/13 21/15/13 24/24/13
f 5/16/14 23/18/14 26/25/14
f 6/19/15 25/21/15 18/26/15
f 25/21/16 16/20/16 26/25/16
f 16/20/17 5/16/17 26/25/17
f 23/18/18 15/17/18 24/24/18
f 15/17/19 4/13/19 24/24/19
f 21/15/20 13/14/20 22/23/20
f 13/14/21 3/10/21 22/23/21
f 19/12/22 9/11/22 20/22/22
f 9/11/23 2/4/23 20/22/23
f 17/9/24 10/5/24 18/26/24
f 10/5/25 6/19/25 18/26/25
f 11/8/26 16/20/26 6/19/26
f 11/8/27 14/7/27 16/20/27
f 14/7/28 5/16/28 16/20/28
f 14/7/29 15/17/29 5/16/29
f 14/7/30 12/6/30 15/17/30
f 12/6/31 4/13/31 15/17/31
f 12/6/32 13/14/32 4/13/32
f 12/6/33 7/3/33 13/14/33
f 7/3/34 3/10/34 13/14/34
f 10/5/35 11/8/35 6/19/35
f 10/5/36 8/2/36 11/8/36
f 8/2/37 1/1/37 11/8/37
f 7/3/38 9/11/38 3/10/38
f 7/3/39 8/2/39 9/11/39
f 8/2/40 2/4/40 9/11/40
f 27/27/41 43/28/41 48/29/41
f 28/30/42 44/31/42 50/32/42
f 29/33/43 45/34/43 51/35/43
f 30/36/44 46/37/44 52/38/44
f 31/39/45 47/40/45 49/41/45
f 49/41/46 52/38/46 32/42/46
f 49/41/47 47/40/47 52/38/47
f 47/40/48 30/36/48 52/38/48
f 52/38/49 51/35/49 32/42/49
f 52/38/50 46/37/50 51/35/50
f 46/37/51 29/33/51 51/35/51
f 51/35/52 50/32/52 32/42/52
f 51/35/53 45/34/53 50/32/53
f 45/34/54 28/30/54 50/32/54
f 50/32/55 48/29/55 32/42/55
f 50/32/56 44/31/56 48/29/56
f 44/31/57 27/27/57 48/29/57
f 48/29/58 49/41/58 32/42/58
f 48/29/59 43/28/59 49/41/59
f 43/28/60 31/39/60 49/41/60
f 34/43/61 47/40/61 31/39/61
f 34/43/62 41/44/62 47/40/62
f 41/44/63 30/36/63 47/40/63
f 42/45/64 46/37/64 30/36/64
f 42/45/65 39/46/65 46/37/65
f 39/46/66 29/33/66 46/37/66
f 40/47/67 45/34/67 29/33/67
f 40/47/68 37/48/68 45/34/68
f 37/48/69 28/30/69 45/34/69
f 38/49/70 44/31/70 28/30/70
f 38/49/71 35/50/71 44/31/71
f 35/50/72 27/27/72 44/31/72
f 36/51/73 43/28/73 27/27/73
f 36/51/74 33/52/74 43/28/74
f 33/52/75 31/39/75 43/28/75
f 41/44/76 42/45/76 30/36/76
f 39/46/77 40/47/77 29/33/77
f 37/48/78 38/49/78 28/30/78
f 35/50/79 36/51/79 27/27/79
f 33/52/80 34/43/80 31/39/80
f 34/53/81 33/54/81 17/55/81 18/56/81
f 33/57/82 36/58/82 20/59/82 17/60/82
f 36/58/83 35/61/83 19/62/83 20/59/83
f 35/61/84 38/63/84 22/64/84 19/62/84
f 38/63/85 37/65/85 21/66/85 22/64/85
f 37/65/86 40/67/86 24/68/86 21/66/86
f 40/67/87 39/69/87 23/70/87 24/68/87
f 39/69/88 42/71/88 26/72/88 23/70/88
f 42/71/89 41/73/89 25/74/89 26/72/89
f 41/73/90 34/53/90 18/56/90 25/74/90
